<svg width="30" height="30" viewBox="0 0 37 37" fill="none" xmlns="http://www.w3.org/2000/svg">
<path d="M27.4771 2.46229C27.9407 1.99869 28.4911 1.63094 29.0968 1.38004C29.7026 1.12914 30.3518 1 31.0074 1C31.6631 1 32.3123 1.12914 32.918 1.38004C33.5237 1.63094 34.0741 1.99869 34.5377 2.46229C35.0013 2.9259 35.3691 3.47627 35.62 4.082C35.8709 4.68773 36 5.33694 36 5.99258C36 6.64821 35.8709 7.29743 35.62 7.90315C35.3691 8.50888 35.0013 9.05926 34.5377 9.52286L10.7083 33.3523L1 36L3.64771 26.2917L27.4771 2.46229Z" fill="white" stroke="black" stroke-width="2" stroke-linecap="round" stroke-linejoin="round"/>
</svg>
